<?xml version="1.0" encoding="UTF-8"?>
<svg version="1.1" xmlns="http://www.w3.org/2000/svg" width="512" height="512">
<path d="M0 0 C0.88558594 0.41378906 1.77117187 0.82757813 2.68359375 1.25390625 C39.09617289 19.78846456 59.45852535 64.92107174 78.25292969 98.84863281 C81.21844934 104.19784015 84.20247323 109.53666142 87.1875 114.875 C87.76483887 115.91084229 88.34217773 116.94668457 88.93701172 118.01391602 C91.6437707 122.85663917 94.38041187 127.67443135 97.21875 132.44140625 C97.97248901 133.71298584 97.97248901 133.71298584 98.74145508 135.01025391 C99.66394022 136.5586833 100.59520159 138.10194082 101.5378418 139.63818359 C107.79241712 150.14236632 109.85904371 160.72676037 106.91601562 172.68139648 C106.44021165 174.49637672 105.95733017 176.30951099 105.46875 178.12109375 C105.07237083 179.61329941 105.07237083 179.61329941 104.66798401 181.13565063 C101.5402987 192.84004299 98.29172937 204.51126088 94.98608398 216.16650391 C94.28033155 218.66251774 93.57957481 221.15994893 92.88354492 223.65869141 C91.85912415 227.33554938 90.81991508 231.00794052 89.77734375 234.6796875 C89.47199203 235.78601532 89.16664032 236.89234314 88.85203552 238.03219604 C84.54338834 253.02913205 77.80231671 261.03881309 64.4765625 269.0078125 C61.78421393 270.7940581 61.78421393 270.7940581 61.1484375 273.7421875 C61.09945313 274.48726563 61.05046875 275.23234375 61 276 C69.14115704 274.88114297 77.30441445 268.69558555 83 263 C86.62818915 257.92668467 89.83207293 252.86615561 92 247 C95.90721621 247.61285328 98.98371028 248.81031377 102.5078125 250.58984375 C103.56726074 251.12174316 104.62670898 251.65364258 105.71826172 252.20166016 C107.40459717 253.06090088 107.40459717 253.06090088 109.125 253.9375 C110.28918457 254.5257959 111.45336914 255.1140918 112.65283203 255.72021484 C121.6945449 260.30262605 130.70564007 264.94049396 139.63769531 269.73339844 C141.30179951 270.62564447 142.96801625 271.51395601 144.63574219 272.39941406 C147.34569086 273.84013401 150.04856159 275.29339552 152.75 276.75 C153.98339111 277.40379639 153.98339111 277.40379639 155.24169922 278.07080078 C168.04102197 285.03665204 173.90569135 293.53989159 178.05464935 307.46405792 C179.55878993 313.09006978 180.54180524 318.762258 181.47363281 324.50683594 C181.68879547 325.78840576 181.90395813 327.06997559 182.12564087 328.39038086 C182.70833015 331.86446748 183.27966074 335.34032592 183.84801579 338.81678295 C184.32678137 341.73917538 184.81099936 344.66065464 185.29507899 347.58217072 C186.43881235 354.48603777 187.57298468 361.39142841 188.70117188 368.29785156 C189.85761747 375.37615468 191.03065945 382.45156491 192.21189237 389.52576995 C193.23249402 395.64182774 194.24234694 401.7595973 195.24395633 407.87879395 C195.83922767 411.51479869 196.43831836 415.15005676 197.04795074 418.78368378 C204.42560388 462.83980017 204.42560388 462.83980017 194.1875 477.25 C193.14540604 478.51706213 192.08290658 479.76763658 191 481 C190.49855469 481.60585938 189.99710937 482.21171875 189.48046875 482.8359375 C184.11381578 488.81629532 176.01562131 493.69652513 168 495 C165.5842094 495.06831987 163.16665287 495.08487642 160.75 495.0625 C159.48671875 495.05347656 158.2234375 495.04445313 156.921875 495.03515625 C155.95765625 495.02355469 154.9934375 495.01195312 154 495 C154.24363281 493.66388672 154.24363281 493.66388672 154.4921875 492.30078125 C154.91896753 489.52671108 155.13453006 486.98457392 155.125 484.1875 C155.12886719 483.03314453 155.12886719 483.03314453 155.1328125 481.85546875 C155.20240029 479.9841278 155.20240029 479.9841278 154 479 C151.9291528 478.8415735 149.85321971 478.74875578 147.77734375 478.68359375 C146.51728516 478.64169922 145.25722656 478.59980469 143.95898438 478.55664062 C142.61849264 478.51682404 141.2779978 478.47711186 139.9375 478.4375 C138.59308477 478.39431958 137.2486834 478.35070544 135.90429688 478.30664062 C132.6029766 478.20014642 129.30157764 478.0981354 126 478 C125.99945523 477.16731598 125.99891047 476.33463196 125.99834919 475.47671509 C125.98337329 455.20330078 125.94089369 434.93010619 125.86790943 414.65681458 C125.83327579 404.85272745 125.80790604 395.04878068 125.80444336 385.24462891 C125.80140121 376.69799693 125.78087695 368.15161505 125.73947543 359.60507965 C125.71816652 355.08087681 125.70553395 350.55702932 125.71384621 346.03277588 C125.72139975 341.77099918 125.70551112 337.50994173 125.67193985 333.24829674 C125.66372221 331.68749803 125.66393823 330.12662759 125.67340279 328.56583595 C126.00065054 317.95452725 126.00065054 317.95452725 121.6252296 308.63178873 C116.663934 303.65047024 110.87835672 302.54107055 104.06410879 302.46502638 C102.5595732 302.47841071 102.5595732 302.47841071 101.02464294 302.49206543 C99.94060513 302.48582547 98.85656732 302.4795855 97.73967987 302.47315645 C94.1184663 302.45724105 90.49792718 302.46982565 86.87670898 302.48242188 C84.27607837 302.47700018 81.67545083 302.46987726 79.0748291 302.46118164 C72.75150792 302.44342495 66.428377 302.44722341 60.10504847 302.4588322 C54.9651231 302.46787673 49.82525095 302.46908613 44.6853199 302.46473694 C43.95295415 302.46412401 43.2205884 302.46351107 42.46602975 302.46287957 C40.97811713 302.46160063 39.49020452 302.46030378 38.00229193 302.4589892 C24.06099042 302.44759197 10.11979425 302.46068404 -3.82148998 302.48219067 C-15.77810007 302.50006464 -27.73455482 302.49695346 -39.69116211 302.47851562 C-53.58513744 302.45710019 -67.47902057 302.44868659 -81.3730101 302.46096468 C-82.85505194 302.46223884 -84.3370938 302.46349633 -85.81913567 302.46473694 C-86.54828 302.46535404 -87.27742433 302.46597114 -88.02866395 302.46660694 C-93.16162924 302.47005755 -98.29453593 302.46423783 -103.42749214 302.45481873 C-110.33784072 302.44241643 -117.24789108 302.45127061 -124.15821075 302.47439575 C-126.69505005 302.47968722 -129.23191402 302.47816166 -131.76874352 302.46934509 C-135.23003869 302.45842414 -138.69039155 302.47211308 -142.15162659 302.49206543 C-143.15688104 302.48314254 -144.16213549 302.47421966 -145.19785219 302.46502638 C-151.34227086 302.53378737 -154.96911591 303.41031463 -160 307 C-165.10718847 312.24522059 -166.24492694 317.66605657 -166.2784729 324.83370972 C-166.2842653 325.4962882 -166.2900577 326.15886667 -166.29602563 326.84152329 C-166.31294654 329.04788216 -166.31589523 331.25403085 -166.31884766 333.46044922 C-166.32815131 335.04752612 -166.33832064 336.63459816 -166.34928894 338.22166443 C-166.37655371 342.52074847 -166.3917279 346.81979981 -166.40471697 351.11894751 C-166.42036292 355.61531665 -166.44714848 360.11161916 -166.4727478 364.60794067 C-166.51950965 373.11817271 -166.55626632 381.62841731 -166.58942068 390.13871205 C-166.62766038 399.82915543 -166.67706571 409.51953184 -166.72740483 419.20991874 C-166.83068611 439.13989711 -166.91956285 459.06991747 -167 479 C-176.24 479.33 -185.48 479.66 -195 480 C-195.82456067 484.94736401 -196.1015694 486.85199203 -195.0625 491.375 C-194.86785156 492.24898438 -194.67320312 493.12296875 -194.47265625 494.0234375 C-194.31667969 494.67570312 -194.16070312 495.32796875 -194 496 C-206.25360347 496.71149956 -216.43322005 495.04840892 -225.97265625 486.90625 C-234.44213274 478.94265746 -240.50483965 469.87837875 -241.17020893 457.94810104 C-241.22430003 449.3700052 -240.37650777 441.25639394 -238.9362793 432.80957031 C-238.71360407 431.45444465 -238.49190337 430.09915855 -238.27108765 428.74372864 C-237.67582136 425.10794305 -237.06668298 421.47461447 -236.45442557 417.84165668 C-235.81181463 414.01592255 -235.18114379 410.18821782 -234.54878235 406.36077881 C-233.48632118 399.94119498 -232.41507444 393.52312692 -231.33813477 387.10595703 C-230.09711935 379.71063435 -228.86866455 372.31331159 -227.64720792 364.91473508 C-226.46601361 357.76108606 -225.27733893 350.60870109 -224.08481789 343.45693207 C-223.57994553 340.42884953 -223.07738715 337.40039684 -222.5766964 334.37162018 C-221.98608408 330.80163015 -221.38880232 327.23281538 -220.78655624 323.66477013 C-220.46438871 321.74716139 -220.14850234 319.82850062 -219.83287048 317.9098053 C-217.12966619 302.00262015 -213.07956113 290.1778306 -200 280 C-196.77536163 277.96151915 -193.43941627 276.25196979 -190.015625 274.57421875 C-189.07934265 274.10111771 -188.1430603 273.62801666 -187.17840576 273.14057922 C-184.20858384 271.64323004 -181.22983634 270.16480203 -178.25 268.6875 C-175.32729891 267.22274474 -172.40658258 265.754085 -169.48596191 264.28518677 C-167.55407374 263.31455914 -165.62105484 262.34617867 -163.68688965 261.38009644 C-155.88247974 257.47517005 -148.1521976 253.43764928 -140.45977783 249.3165741 C-139.63870544 248.88057388 -138.81763306 248.44457367 -137.97167969 247.99536133 C-136.88968292 247.41568352 -136.88968292 247.41568352 -135.78582764 246.82429504 C-134 246 -134 246 -132 246 C-131.63648438 246.78503906 -131.27296875 247.57007813 -130.8984375 248.37890625 C-125.62070407 259.40801585 -120.28649474 265.41403507 -110 272 C-109.15566406 272.56203125 -108.31132812 273.1240625 -107.44140625 273.703125 C-104.87199064 275.31274719 -104.87199064 275.31274719 -101 275 C-101.06799126 272.6248056 -101.06799126 272.6248056 -102 270 C-104.49832714 267.89646648 -104.49832714 267.89646648 -107.625 266.125 C-121.85978875 257.07417346 -126.05742179 245.93787585 -130.57421875 230.12109375 C-130.98750771 228.69941008 -131.40157005 227.27795104 -131.81636047 225.85670471 C-132.67841872 222.89578906 -133.53426538 219.93318002 -134.38500977 216.96899414 C-135.46906881 213.19210798 -136.56394738 209.41847391 -137.66292095 205.64590359 C-138.7204705 202.01372821 -139.77251858 198.37996626 -140.82421875 194.74609375 C-141.02169897 194.06548826 -141.21917919 193.38488277 -141.42264366 192.68365288 C-147.35701721 172.19228265 -147.35701721 172.19228265 -147.375 162.5625 C-147.39949219 161.87607422 -147.42398438 161.18964844 -147.44921875 160.48242188 C-147.50600254 150.28973225 -141.85021566 141.4897852 -137.0625 132.8125 C-136.49257324 131.77005127 -135.92264648 130.72760254 -135.33544922 129.65356445 C-130.96462799 121.6848331 -126.51270142 113.76236219 -122.01782227 105.86303711 C-119.07704643 100.6924181 -116.16858213 95.50662998 -113.3046875 90.29296875 C-68.19076916 8.18157044 -68.19076916 8.18157044 -35 -2 C-24.51413197 -4.79998985 -9.85262341 -4.60484163 0 0 Z M-43 119 C-43.72493652 119.28945496 -44.44987305 119.57890991 -45.19677734 119.87713623 C-50.91941914 122.16792322 -56.61720572 124.51722628 -62.3125 126.875 C-63.98359979 127.56410327 -65.65482333 128.25290654 -67.32617188 128.94140625 C-69.80267333 129.96166058 -72.27867792 130.98302728 -74.7530365 132.00846863 C-78.77644913 133.67570079 -82.80474314 135.32770325 -86.84790039 136.9465332 C-88.00584358 137.41345078 -88.00584358 137.41345078 -89.18717957 137.88980103 C-90.63414999 138.47256685 -92.08309316 139.05046931 -93.53437805 139.62240601 C-101.63934739 142.90011909 -106.74735256 147.21827927 -110.30859375 155.203125 C-113.63698379 163.85317821 -111.97745159 171.74374564 -109 180.25 C-108.6589624 181.24797607 -108.3179248 182.24595215 -107.96655273 183.27416992 C-100.75123705 203.73962257 -91.95459876 223.82843294 -82.8125 243.5 C-82.48709229 244.20938721 -82.16168457 244.91877441 -81.82641602 245.6496582 C-78.80145524 251.96031125 -75.20677578 256.71679876 -69.0625 260.25 C-68.24910156 260.72953125 -67.43570313 261.2090625 -66.59765625 261.703125 C-61.20251834 264.39663746 -56.61677002 265.25489604 -50.59277344 265.29052734 C-49.87644241 265.29724457 -49.16011139 265.30396179 -48.42207336 265.31088257 C-46.06776882 265.32978746 -43.71375061 265.33378322 -41.359375 265.3359375 C-39.71038703 265.34237175 -38.06140018 265.34910057 -36.41241455 265.35610962 C-32.9593237 265.36806442 -29.50633273 265.37179241 -26.05322266 265.37060547 C-21.65081397 265.37040263 -17.24905338 265.39767564 -12.84679794 265.43214989 C-9.4407666 265.45450425 -6.03488897 265.45844038 -2.62879181 265.45738602 C-1.00703961 265.45973027 0.61471759 265.46848678 2.23639679 265.48405075 C14.32433294 265.58918389 23.68508331 264.5115627 33.015625 256.171875 C38.18685501 250.51202483 41.92936332 244.71805361 44.8125 237.62890625 C45.14378906 236.84084595 45.47507812 236.05278564 45.81640625 235.24084473 C46.88794221 232.68557631 47.94390839 230.1241849 49 227.5625 C49.74233197 225.78589282 50.48583543 224.0097747 51.23046875 222.23413086 C52.74875997 218.61008217 54.26150165 214.98379919 55.76953125 211.35546875 C58.84191918 203.96891941 61.957085 196.6005895 65.08007812 189.23532104 C65.98869159 187.08921003 66.89313222 184.94137879 67.796875 182.79321289 C68.34364292 181.49881544 68.89051179 180.20446062 69.4375 178.91015625 C69.91058594 177.78746338 70.38367188 176.66477051 70.87109375 175.50805664 C72 173 72 173 73 172 C73.90161557 163.46041252 73.39053465 155.94031336 68 149 C62.43938975 143.30003973 56.69449896 140.11321156 49.3515625 137.1875 C48.34016205 136.77008545 47.3287616 136.3526709 46.28671265 135.92260742 C43.07199742 134.60020502 39.84883461 133.29998795 36.625 132 C34.50072227 131.12901695 32.37701891 130.25663169 30.25390625 129.3828125 C20.77020246 125.49130916 11.25640722 121.67497999 1.7109375 117.9375 C0.98073395 117.65044189 0.2505304 117.36338379 -0.50180054 117.06762695 C-6.88102645 114.59125294 -12.0914656 113.74381987 -18.875 113.625 C-19.64585937 113.58761719 -20.41671875 113.55023438 -21.2109375 113.51171875 C-29.09476269 113.39653299 -35.78028564 116.08968231 -43 119 Z " fill="#000000" transform="translate(276,3)"/>
<path d="M0 0 C1.62327016 -0.00913666 1.62327016 -0.00913666 3.27933365 -0.01845789 C6.91208234 -0.03513091 10.54448217 -0.03030581 14.17726135 -0.0255127 C16.77907171 -0.03285047 19.38087881 -0.04143584 21.98268127 -0.05117798 C28.32007437 -0.0722306 34.65737597 -0.07677295 40.9947999 -0.07499009 C46.14576599 -0.07368246 51.29670354 -0.07748663 56.44766426 -0.08491516 C57.93138649 -0.08701435 59.41510872 -0.08911195 60.89883095 -0.09120798 C61.6373178 -0.09225151 62.37580464 -0.09329504 63.13666988 -0.09437019 C77.10270041 -0.11327162 91.06867841 -0.11222256 105.03471643 -0.10540086 C117.81151715 -0.09982452 130.5881174 -0.12065476 143.36487126 -0.15376133 C156.48451978 -0.18749254 169.60407225 -0.20266744 182.72376496 -0.1980443 C190.08931868 -0.19579914 197.45468709 -0.20104947 204.82020378 -0.22593689 C211.7453135 -0.24913705 218.66999876 -0.24637426 225.59511566 -0.22600937 C228.13883092 -0.22258912 230.68257402 -0.22773174 233.2262516 -0.24199295 C236.69478341 -0.26009979 240.16188354 -0.24749807 243.63037109 -0.22705078 C244.64058474 -0.23956863 245.6507984 -0.25208648 246.69162458 -0.26498365 C251.21407715 -0.20769693 254.38339309 -0.09610348 257.98794651 2.80825043 C261.72178905 6.84731217 261.51954182 9.69094552 261.49893188 14.96194458 C261.4997879 15.74986893 261.50064392 16.53779327 261.50152588 17.34959412 C261.50318822 20.0125043 261.49764588 22.67535235 261.49220276 25.33825684 C261.4918966 27.27087591 261.49202961 29.2034951 261.49256802 31.13611412 C261.49279439 36.32603763 261.48698559 41.51593823 261.47995758 46.70585632 C261.47427564 51.57038447 261.47399517 56.43490695 261.47328186 61.29943848 C261.46802809 75.53943176 261.45406702 89.77942076 261.44117737 104.01940918 C261.42055237 135.82315918 261.39992737 167.62690918 261.37867737 200.39440918 C168.97867737 200.39440918 76.57867737 200.39440918 -18.62132263 200.39440918 C-18.68319763 169.00315918 -18.74507263 137.61190918 -18.80882263 105.26940918 C-18.83613464 95.35249023 -18.86344666 85.43557129 -18.8915863 75.21813965 C-18.90513611 63.12121582 -18.90513611 63.12121582 -18.90765381 57.46060181 C-18.91045212 53.50164765 -18.92170789 49.54281382 -18.93804932 45.58389282 C-18.95861374 40.53508136 -18.96479848 35.48644507 -18.96053946 30.43759561 C-18.96143016 28.5840298 -18.96738669 26.73045793 -18.97896802 24.87692809 C-18.99388483 22.37340856 -18.99029507 19.87057001 -18.98208618 17.36703491 C-18.99082417 16.64155016 -18.99956217 15.91606541 -19.00856495 15.16859627 C-18.96748938 10.50932174 -18.21052907 7.28441353 -15.62132263 3.39440918 C-11.14929403 -0.6946105 -5.71968696 -0.0300995 0 0 Z M101.37867737 81.39440918 C95.91875117 89.39694807 93.36047246 95.64474847 94.37867737 105.39440918 C97.07156618 115.0357883 101.41684169 120.11820149 109.94117737 125.16003418 C115.89026874 128.17271507 122.63819495 128.40357159 129.04273987 126.67565918 C137.33082526 123.5707571 142.22865278 119.36387257 146.39820862 111.57800293 C149.0828699 105.59901624 149.38468266 98.99622088 147.62477112 92.69519043 C144.08473191 83.40779344 139.20269576 78.8629826 130.37867737 74.39440918 C120.4736267 71.20108203 108.58897808 73.78353621 101.37867737 81.39440918 Z " fill="#000000" transform="translate(134.62132263183594,311.6055908203125)"/>
<path d="M0 0 C7.59 0 15.18 0 23 0 C23 7.59 23 15.18 23 23 C15.59582686 21.76597114 10.85996298 19.24166089 5.6875 13.8125 C3 10 3 10 0 0 Z " fill="#000000" transform="translate(86,489)"/>
<path d="M0 0 C7.26 0 14.52 0 22 0 C20.89560767 7.7307463 18.95738903 12.60556824 13.125 17.8125 C8.98962314 20.7072638 5.17846914 23 0 23 C0 15.41 0 7.82 0 0 Z " fill="#000000" transform="translate(403,489)"/>
</svg>
